<svg width="14" height="12" viewBox="0 0 14 12" fill="none" xmlns="http://www.w3.org/2000/svg">
<path d="M0.75 7.5C0.5375 7.5 0.359375 7.42813 0.215625 7.28438C0.071875 7.14063 0 6.9625 0 6.75C0 6.5375 0.071875 6.35938 0.215625 6.21563C0.359375 6.07188 0.5375 6 0.75 6H4.5C4.7125 6 4.89063 6.07188 5.03438 6.21563C5.17813 6.35938 5.25 6.5375 5.25 6.75C5.25 6.9625 5.17813 7.14063 5.03438 7.28438C4.89063 7.42813 4.7125 7.5 4.5 7.5H0.75ZM0.75 4.5C0.5375 4.5 0.359375 4.42813 0.215625 4.28438C0.071875 4.14063 0 3.9625 0 3.75C0 3.5375 0.071875 3.35937 0.215625 3.21562C0.359375 3.07187 0.5375 3 0.75 3H7.5C7.7125 3 7.89063 3.07187 8.03438 3.21562C8.17813 3.35937 8.25 3.5375 8.25 3.75C8.25 3.9625 8.17813 4.14063 8.03438 4.28438C7.89063 4.42813 7.7125 4.5 7.5 4.5H0.75ZM0.75 1.5C0.5375 1.5 0.359375 1.42812 0.215625 1.28437C0.071875 1.14062 0 0.9625 0 0.75C0 0.5375 0.071875 0.359375 0.215625 0.215625C0.359375 0.071875 0.5375 0 0.75 0H7.5C7.7125 0 7.89063 0.071875 8.03438 0.215625C8.17813 0.359375 8.25 0.5375 8.25 0.75C8.25 0.9625 8.17813 1.14062 8.03438 1.28437C7.89063 1.42812 7.7125 1.5 7.5 1.5H0.75ZM6.75 11.25V10.0125C6.75 9.9125 6.76875 9.81563 6.80625 9.72188C6.84375 9.62813 6.9 9.54375 6.975 9.46875L10.8938 5.56875C11.0063 5.45625 11.1313 5.375 11.2688 5.325C11.4063 5.275 11.5437 5.25 11.6812 5.25C11.8312 5.25 11.975 5.27813 12.1125 5.33438C12.25 5.39063 12.375 5.475 12.4875 5.5875L13.1813 6.28125C13.2813 6.39375 13.3594 6.51875 13.4156 6.65625C13.4719 6.79375 13.5 6.93125 13.5 7.06875C13.5 7.20625 13.475 7.34688 13.425 7.49063C13.375 7.63438 13.2938 7.7625 13.1813 7.875L9.28125 11.775C9.20625 11.85 9.12188 11.9063 9.02813 11.9438C8.93438 11.9813 8.8375 12 8.7375 12H7.5C7.2875 12 7.10938 11.9281 6.96563 11.7844C6.82188 11.6406 6.75 11.4625 6.75 11.25ZM11.6812 7.8L12.375 7.06875L11.6812 6.375L10.9688 7.0875L11.6812 7.8ZM7.875 10.875H8.5875L10.8563 8.5875L10.5188 8.23125L10.1625 7.89375L7.875 10.1625V10.875ZM7.875 10.875V10.1625L10.1625 7.89375L10.8563 8.5875L8.5875 10.875H7.875Z" fill="black"/>
</svg>
